# xmcd
#
# Track frame offsets:
#	150
#	14258
#	28935
#	43633
#	60338
#	74708
#	86808
#	103495
#	117721
#	128083
#	141651
#	157268
#	170004
#	184183
#
# Disc length: 2638 seconds
#
# Revision: 0
# Processed by: cddbd v1.4PL0 Copyright (c) Steve Scherf et al.
# Submitted via: dBpowerAMP V4.0
#
DISCID=de0a4c0e
DTITLE=Dixie Aces - Dirty Talkin' Tequila
DYEAR=2002
DGENRE=Country
TTITLE0=He drinks tequila
TTITLE1=Heaven
TTITLE2=Touch me
TTITLE3=Southern Streamline
TTITLE4=I'll make it all up to you
TTITLE5=Telephone Blues
TTITLE6=No more running around
TTITLE7=Almost persuaded
TTITLE8=Mona Lisa
TTITLE9=Dim Lights Thick smoke and loud loud music
TTITLE10=Carmelita
TTITLE11=Pour me
TTITLE12=I love you so much it hurts
TTITLE13=Chain me
EXTD=
EXTT0=
EXTT1=
EXTT2=
EXTT3=
EXTT4=
EXTT5=
EXTT6=
EXTT7=
EXTT8=
EXTT9=
EXTT10=
EXTT11=
EXTT12=
EXTT13=
PLAYORDER=
